<?xml version="1.0" encoding="UTF-8"?>
<svg id="Layer_1" data-name="Layer 1" xmlns="http://www.w3.org/2000/svg" viewBox="0 0 67.07 12.69">
  <defs>
    <style>
      .cls-1 {
        stroke-width: 0px;
      }
    </style>
  </defs>
  <path class="cls-1" d="m10.31,12.69s-.2-.14-.5-.42c-.3-.28-.69-.65-1.16-1.1-.47-.45-.99-.95-1.56-1.5s-1.12-1.09-1.68-1.63c-.56-.55-1.07-1.04-1.54-1.5-.47-.45-.85-.82-1.14-1.1-.29-.28-.44-.41-.46-.41-.03,0-.04.02-.05.06,0,.04,0,.07,0,.09,0,.51,0,1.03,0,1.54,0,.51,0,1.02,0,1.54v1.28c0,.43,0,.86,0,1.29,0,.18,0,.38.01.59,0,.21,0,.41-.02.59-.01.11-.04.2-.08.25-.04.06-.13.08-.26.08H.36c-.23,0-.35-.12-.35-.36,0-.32,0-.64.02-.97.01-.32.02-.64.03-.97.01-.64.02-1.29.03-1.93,0-.64,0-1.29,0-1.93,0-.68,0-1.35,0-2.03,0-.68-.02-1.35-.03-2.03,0-.32-.02-.64-.03-.97-.01-.32-.02-.64-.02-.97,0-.03.02-.05.05-.05s.06.01.08.03c1.34,1.25,2.65,2.53,3.94,3.83,1.28,1.31,2.59,2.6,3.9,3.87.01.01.03.03.05.05.02.02.04.03.07.03.03,0,.05-.02.05-.06,0-.04,0-.07,0-.09,0-.52,0-1.05,0-1.57,0-.52,0-1.05,0-1.57v-1.35c0-.45,0-.9,0-1.34,0-.19,0-.38,0-.58,0-.2,0-.39.02-.58.01-.12.04-.21.08-.26.04-.06.13-.08.26-.08h1.45c.23,0,.35.12.35.36,0,.29,0,.59-.02.88-.01.29-.02.59-.03.89-.01.62-.02,1.23-.03,1.86,0,.62,0,1.25,0,1.87,0,2.11.03,4.22.1,6.34l-.03.03Z"/>
  <path class="cls-1" d="m11.46,6.43c0-.79.14-1.55.41-2.27.27-.73.66-1.37,1.16-1.94.5-.57,1.09-1.02,1.78-1.35.68-.33,1.44-.5,2.26-.5s1.58.17,2.26.5c.69.33,1.28.79,1.79,1.36s.9,1.22,1.18,1.95c.28.73.42,1.49.42,2.28s-.14,1.55-.42,2.27c-.28.72-.67,1.36-1.18,1.93-.51.56-1.1,1.01-1.79,1.34-.69.33-1.44.49-2.26.49s-1.59-.16-2.28-.49c-.68-.32-1.27-.77-1.77-1.33-.5-.56-.88-1.21-1.15-1.94-.27-.72-.41-1.49-.41-2.29Zm5.68,4.01c.72,0,1.33-.2,1.83-.59.5-.4.88-.9,1.14-1.52.26-.62.39-1.25.39-1.9s-.14-1.31-.4-1.92c-.27-.62-.66-1.12-1.17-1.52-.51-.4-1.13-.6-1.85-.6s-1.32.2-1.84.59c-.52.4-.91.9-1.19,1.51-.28.61-.41,1.25-.41,1.91s.14,1.31.43,1.93c.28.62.69,1.12,1.21,1.52.52.39,1.15.59,1.87.59Z"/>
  <path class="cls-1" d="m24.44.47c.15,0,.25.08.32.23.04.1.08.2.12.31.03.11.07.22.11.32l.46,1.25c.28.77.55,1.54.81,2.32s.54,1.55.83,2.31c0,.02.02.04.04.08.02.04.04.05.06.05.03,0,.05-.02.07-.05.02-.04.03-.06.03-.08.08-.24.17-.49.25-.74.08-.25.16-.49.24-.74.17-.52.35-1.05.52-1.58.17-.52.35-1.05.52-1.57l.42-1.25c.03-.1.07-.21.1-.32.03-.11.07-.21.11-.31.07-.16.18-.24.33-.24h1.78c.08,0,.17.02.25.05.08.03.13.1.13.21,0,.06-.02.14-.06.23-.44,1.07-.89,2.15-1.32,3.22-.44,1.08-.87,2.16-1.3,3.24l-1.28,3.24c-.09.24-.18.48-.27.72-.09.24-.19.48-.29.72-.02.05-.06.13-.12.24-.06.11-.12.16-.2.16s-.15-.05-.2-.16c-.06-.11-.1-.19-.12-.24-.1-.24-.2-.48-.29-.72-.09-.24-.18-.48-.28-.72l-1.14-2.88c-.44-1.14-.9-2.28-1.36-3.42-.46-1.14-.93-2.27-1.4-3.4-.04-.09-.06-.17-.06-.24,0-.11.04-.17.13-.2.08-.03.17-.04.25-.04h1.82Z"/>
  <path class="cls-1" d="m29.91,12.35c-.08,0-.16-.01-.25-.04-.09-.03-.14-.09-.14-.2,0-.04,0-.09.03-.14.02-.04.03-.09.05-.13.5-1.07.99-2.15,1.48-3.22.49-1.07.97-2.15,1.44-3.24.39-.89.78-1.79,1.16-2.68.38-.89.78-1.78,1.18-2.66.02-.03.04-.05.08-.05s.07.02.08.05c.41.88.8,1.77,1.18,2.66.38.9.77,1.79,1.16,2.68.47,1.08.95,2.16,1.44,3.24.49,1.07.98,2.15,1.48,3.22.02.04.03.08.05.13.02.04.03.09.03.14,0,.11-.04.17-.14.2-.09.03-.18.04-.25.04h-1.71c-.14,0-.25-.07-.32-.21-.04-.09-.09-.19-.13-.29-.04-.1-.08-.2-.12-.29-.12-.28-.24-.57-.36-.86-.12-.29-.24-.58-.37-.86-.02-.04-.05-.07-.09-.07h-4.18s-.08.02-.09.07c-.14.28-.26.57-.38.86-.12.29-.25.58-.38.87-.04.09-.08.19-.12.29-.04.1-.09.2-.14.29-.07.14-.18.2-.31.2h-1.35Zm3.48-4.35h2.81c-.23-.56-.45-1.13-.68-1.69-.23-.56-.46-1.12-.69-1.69-.24.56-.48,1.13-.71,1.69-.24.56-.48,1.12-.72,1.69Z"/>
  <path class="cls-1" d="m41.01.83c0-.24.11-.36.35-.36h3.42c.5,0,1,.04,1.53.13.52.08,1,.24,1.44.45.44.22.8.52,1.07.91.27.39.41.89.41,1.5,0,.55-.12,1.04-.35,1.45-.23.42-.58.78-1.03,1.08-.02.01-.04.02-.06.04-.02.01-.03.04-.03.06,0,.02.01.04.04.06.03.02.05.03.06.04.57.29,1.06.64,1.44,1.07.39.42.58.98.58,1.67,0,.65-.14,1.19-.41,1.63-.27.44-.63.79-1.08,1.05-.45.26-.94.45-1.49.56-.54.11-1.09.17-1.64.17h-3.94c-.23,0-.35-.12-.35-.36,0-.32,0-.63.02-.95.01-.32.02-.64.03-.95.02-1.27.03-2.54.03-3.81,0-1.19,0-2.37-.03-3.56,0-.32-.01-.63-.02-.95,0-.32-.01-.63-.01-.94Zm2.17,4.61h1.97c.31,0,.61-.05.9-.16.29-.1.53-.27.71-.5.19-.23.28-.51.28-.86,0-.39-.12-.68-.35-.88-.23-.2-.51-.34-.85-.41-.33-.07-.65-.11-.96-.11h-1.72c0,.49,0,.97,0,1.46v1.46Zm0,4.94h2.06c.24,0,.5-.02.78-.06.28-.04.55-.11.81-.22.26-.11.47-.26.63-.45.17-.2.25-.44.25-.75s-.09-.57-.28-.76c-.19-.19-.42-.33-.71-.43-.28-.1-.58-.16-.88-.19-.3-.03-.57-.05-.8-.05h-1.85v1.45c0,.49,0,.97,0,1.46Z"/>
  <path class="cls-1" d="m51.01.83c0-.24.11-.36.35-.36h6.73c.23,0,.35.12.35.36v.67c0,.23,0,.45-.02.67-.02.23-.13.34-.35.34h-4.8c-.07,0-.1.03-.1.1,0,.46,0,.91,0,1.37,0,.45,0,.91,0,1.37,0,.07.03.1.1.1h4.16c.23,0,.35.12.35.35v1.16c0,.23-.12.35-.35.35h-4.16c-.07,0-.1.03-.1.1,0,.46,0,.93,0,1.39,0,.47,0,.93,0,1.4,0,.07.03.1.1.1h5c.21,0,.33.11.35.34.01.22.02.44.02.67,0,.23,0,.45,0,.67,0,.24-.12.36-.35.36h-6.95c-.23,0-.35-.12-.35-.36,0-.31,0-.62.01-.93,0-.31.02-.62.02-.93.02-1.3.03-2.59.03-3.89,0-.91,0-1.81-.03-2.71-.02-.91-.03-1.81-.03-2.71Z"/>
  <path class="cls-1" d="m59.21.83c0-.24.11-.36.35-.36h7.17c.23,0,.35.12.35.36,0,.22,0,.44,0,.67,0,.23,0,.45-.02.67-.02.23-.13.34-.35.34h-2.45c-.07,0-.1.03-.1.1,0,.6,0,1.2,0,1.79,0,.6,0,1.19,0,1.79,0,.97,0,1.93,0,2.9,0,.97,0,1.94,0,2.9,0,.23-.12.35-.35.35h-1.46c-.23,0-.35-.12-.35-.35,0-.99,0-1.99.01-2.98,0-.99.01-1.98.01-2.97v-3.43c0-.07-.04-.1-.12-.1h-2.34c-.21,0-.33-.11-.35-.34-.02-.22-.02-.44-.02-.67,0-.23,0-.45,0-.67Z"/>
</svg>