<?xml version="1.0" encoding="UTF-8"?>
<svg id="Layer_1" data-name="Layer 1" xmlns="http://www.w3.org/2000/svg" viewBox="0 0 2157.31 1080">
  <defs>
    <style>
      .cls-1, .cls-2 {
        stroke: #000;
        stroke-miterlimit: 10;
        stroke-width: 3px;
      }

      .cls-2 {
        fill: #fff;
      }
    </style>
  </defs>
  <g>
    <polygon class="cls-1" points="1687.28 790.53 1153.33 790.53 1143.81 172.67 1871.83 172.67 1871.84 439.04 1688.12 461.66 1687.28 790.53"/>
    <polygon class="cls-2" points="878.59 172.67 102.74 172.86 102.74 318.17 353.7 317.98 353.86 791.3 627.85 791.3 627.85 318.02 878.59 317.98 878.59 172.67"/>
  </g>
  <polygon class="cls-1" points="1577.89 958.33 102.74 958.33 102.74 318.17 350.93 318.17 350.93 791.45 1687.28 791.3 1577.89 958.33"/>
  <polygon class="cls-2" points="878.59 791.3 878.59 172.67 1140.39 172.67 1310.33 501.63 1310.33 172.67 1569.85 172.67 1569.85 791.3 1324.11 791.3 1154.17 481.98 1154.17 791.3 878.59 791.3"/>
  <rect class="cls-2" x="627.85" y="318.17" width="584.89" height="472.36"/>
  <rect class="cls-1" x="864.78" y="509.98" width="111.02" height="88.74"/>
  <polygon class="cls-2" points="1417.44 172.67 1679.34 172.87 1757 276.78 1832.53 172.67 2093 172.67 1687.28 791.3 1417.44 791.3 1641.35 451.61 1417.44 172.67"/>
</svg>